<svg width="36" height="27" viewBox="0 0 36 27" fill="none" xmlns="http://www.w3.org/2000/svg">
<path d="M3.33333 26.6667C2.41667 26.6667 1.63194 26.3403 0.979167 25.6875C0.326389 25.0347 0 24.25 0 23.3333V3.33333C0 2.41667 0.326389 1.63194 0.979167 0.979167C1.63194 0.326389 2.41667 0 3.33333 0H13.3333L16.6667 3.33333H30C30.9167 3.33333 31.7014 3.65972 32.3542 4.3125C33.0069 4.96528 33.3333 5.75 33.3333 6.66667H15.2917L11.9583 3.33333H3.33333V3.33333V3.33333V23.3333V23.3333V23.3333L7.33333 10H35.8333L31.5417 24.2917C31.3194 25.0139 30.9097 25.5903 30.3125 26.0208C29.7153 26.4514 29.0556 26.6667 28.3333 26.6667H3.33333V26.6667M6.83333 23.3333H28.3333L31.3333 13.3333H9.83333L6.83333 23.3333V23.3333M6.83333 23.3333L9.83333 13.3333V13.3333L6.83333 23.3333V23.3333V23.3333M3.33333 6.66667V3.33333V3.33333V3.33333V3.33333V6.66667V6.66667V6.66667" fill="white"/>
</svg>
