<svg width="34" height="34" viewBox="0 0 34 34" fill="none" xmlns="http://www.w3.org/2000/svg">
<path d="M15 29.125L6.66667 24.3333C6.13889 24.0278 5.72917 23.625 5.4375 23.125C5.14583 22.625 5 22.0694 5 21.4583V11.875C5 11.2639 5.14583 10.7083 5.4375 10.2083C5.72917 9.70833 6.13889 9.30556 6.66667 9L15 4.20833C15.5278 3.90278 16.0833 3.75 16.6667 3.75C17.25 3.75 17.8056 3.90278 18.3333 4.20833L26.6667 9C27.1944 9.30556 27.6042 9.70833 27.8958 10.2083C28.1875 10.7083 28.3333 11.2639 28.3333 11.875V21.4583C28.3333 22.0694 28.1875 22.625 27.8958 23.125C27.6042 23.625 27.1944 24.0278 26.6667 24.3333L18.3333 29.125C17.8056 29.4306 17.25 29.5833 16.6667 29.5833C16.0833 29.5833 15.5278 29.4306 15 29.125V29.125M15 25.2917V17.625L8.33333 13.75V21.4583V21.4583V21.4583L15 25.2917V25.2917M18.3333 25.2917L25 21.4583V21.4583V21.4583V13.75L18.3333 17.625V25.2917V25.2917M0 8.33333V3.33333C0 2.41667 0.326389 1.63194 0.979167 0.979167C1.63194 0.326389 2.41667 0 3.33333 0H8.33333V3.33333H3.33333V3.33333V3.33333V8.33333H0V8.33333M8.33333 33.3333H3.33333C2.41667 33.3333 1.63194 33.0069 0.979167 32.3542C0.326389 31.7014 0 30.9167 0 30V25H3.33333V30V30V30H8.33333V33.3333V33.3333M25 33.3333V30H30V30V30V25H33.3333V30C33.3333 30.9167 33.0069 31.7014 32.3542 32.3542C31.7014 33.0069 30.9167 33.3333 30 33.3333H25V33.3333M30 8.33333V3.33333V3.33333V3.33333H25V0H30C30.9167 0 31.7014 0.326389 32.3542 0.979167C33.0069 1.63194 33.3333 2.41667 33.3333 3.33333V8.33333H30V8.33333M16.6667 14.75L23.25 10.875L16.6667 7.08333V7.08333V7.08333L10.0833 10.875L16.6667 14.75V14.75M16.6667 16.625V16.625V16.625V16.625V16.625V16.625V16.625V16.625V16.625V16.625V16.625V16.625V16.625V16.625M16.6667 14.75V14.75V14.75V14.75V14.75V14.75M18.3333 17.625V17.625V17.625V17.625V17.625V17.625M15 17.625V17.625V17.625V17.625V17.625V17.625" fill="white"/>
</svg>
